<svg width="279" height="86" viewBox="0 0 279 86" fill="none" xmlns="http://www.w3.org/2000/svg">
<path d="M15.1727 74.2027H12.92V81.6073C12.92 82.0337 12.825 82.3512 12.635 82.5598C12.4449 82.7637 12.1993 82.8657 11.898 82.8657C11.5921 82.8657 11.3418 82.7614 11.1471 82.5528C10.9571 82.3443 10.862 82.0291 10.862 81.6073V74.2027H8.60938C8.25711 74.2027 7.99522 74.1262 7.82373 73.9733C7.65223 73.8157 7.56648 73.6094 7.56648 73.3545C7.56648 73.0903 7.65454 72.8817 7.83068 72.7287C8.01145 72.5758 8.27101 72.4993 8.60938 72.4993H15.1727C15.5296 72.4993 15.7938 72.5781 15.9653 72.7357C16.1414 72.8933 16.2295 73.0996 16.2295 73.3545C16.2295 73.6094 16.1414 73.8157 15.9653 73.9733C15.7891 74.1262 15.5249 74.2027 15.1727 74.2027ZM19.532 73.577V76.4971H23.9886V73.577C23.9886 73.1598 24.0813 72.8469 24.2667 72.6384C24.4568 72.4298 24.7048 72.3255 25.0107 72.3255C25.3212 72.3255 25.5715 72.4298 25.7616 72.6384C25.9562 72.8423 26.0536 73.1552 26.0536 73.577V81.6073C26.0536 82.0291 25.9562 82.3443 25.7616 82.5528C25.5669 82.7614 25.3166 82.8657 25.0107 82.8657C24.7001 82.8657 24.4522 82.7614 24.2667 82.5528C24.0813 82.3396 23.9886 82.0244 23.9886 81.6073V78.1796H19.532V81.6073C19.532 82.0291 19.4347 82.3443 19.24 82.5528C19.0453 82.7614 18.795 82.8657 18.4891 82.8657C18.1785 82.8657 17.9306 82.7614 17.7452 82.5528C17.5598 82.3396 17.4671 82.0244 17.4671 81.6073V73.577C17.4671 73.1598 17.5574 72.8469 17.7382 72.6384C17.9236 72.4298 18.1739 72.3255 18.4891 72.3255C18.7996 72.3255 19.0499 72.4298 19.24 72.6384C19.4347 72.8423 19.532 73.1552 19.532 73.577ZM28.3549 81.6073V73.577C28.3549 73.1598 28.4499 72.8469 28.64 72.6384C28.83 72.4298 29.0757 72.3255 29.3769 72.3255C29.6875 72.3255 29.9378 72.4298 30.1278 72.6384C30.3225 72.8423 30.4198 73.1552 30.4198 73.577V81.6073C30.4198 82.0291 30.3225 82.3443 30.1278 82.5528C29.9378 82.7614 29.6875 82.8657 29.3769 82.8657C29.0803 82.8657 28.8346 82.7614 28.64 82.5528C28.4499 82.3396 28.3549 82.0244 28.3549 81.6073ZM35.4258 73.5631L39.3957 79.5702V73.5074C39.3957 73.1135 39.4792 72.8191 39.646 72.6245C39.8175 72.4251 40.047 72.3255 40.3343 72.3255C40.631 72.3255 40.865 72.4251 41.0365 72.6245C41.208 72.8191 41.2938 73.1135 41.2938 73.5074V81.5238C41.2938 82.4184 40.923 82.8657 40.1814 82.8657C39.996 82.8657 39.8291 82.8379 39.6808 82.7823C39.5325 82.7313 39.3934 82.6479 39.2636 82.532C39.1338 82.4161 39.0133 82.2817 38.9021 82.1287C38.7908 81.9711 38.6796 81.8112 38.5684 81.649L34.6957 75.7114V81.6838C34.6957 82.0731 34.6053 82.3674 34.4246 82.5667C34.2438 82.7661 34.012 82.8657 33.7293 82.8657C33.4373 82.8657 33.2032 82.7661 33.0271 82.5667C32.851 82.3628 32.7629 82.0685 32.7629 81.6838V73.8203C32.7629 73.4866 32.8 73.2247 32.8741 73.0347C32.9622 72.8261 33.1082 72.6569 33.3121 72.5271C33.5161 72.3927 33.7363 72.3255 33.9727 72.3255C34.1581 72.3255 34.3156 72.3556 34.4454 72.4159C34.5798 72.4761 34.6957 72.5572 34.7931 72.6592C34.895 72.7612 34.997 72.8933 35.099 73.0555C35.2056 73.2177 35.3145 73.3869 35.4258 73.5631ZM45.6323 73.577V77.1506L49.6856 72.9234C49.8803 72.7195 50.0449 72.5688 50.1793 72.4715C50.3183 72.3742 50.5014 72.3255 50.7285 72.3255C51.0252 72.3255 51.2639 72.4136 51.4447 72.5897C51.6301 72.7612 51.7228 72.9721 51.7228 73.2224C51.7228 73.5237 51.5675 73.8226 51.2569 74.1193L48.747 76.4971L51.6393 80.6409C51.8433 80.9282 51.9962 81.1809 52.0982 81.3987C52.2002 81.6119 52.2512 81.8205 52.2512 82.0244C52.2512 82.2516 52.1608 82.4486 51.98 82.6154C51.8039 82.7823 51.5629 82.8657 51.2569 82.8657C50.9696 82.8657 50.7355 82.8055 50.5547 82.6849C50.374 82.5598 50.221 82.3952 50.0959 82.1913C49.9707 81.9874 49.8595 81.802 49.7621 81.6351L47.3217 77.8807L45.6323 79.5006V81.6073C45.6323 82.0337 45.5349 82.3512 45.3402 82.5598C45.1456 82.7637 44.8953 82.8657 44.5894 82.8657C44.4132 82.8657 44.244 82.8194 44.0818 82.7267C43.9196 82.634 43.7944 82.5088 43.7064 82.3512C43.6415 82.2214 43.6021 82.0708 43.5882 81.8993C43.5743 81.7278 43.5673 81.4798 43.5673 81.1554V73.577C43.5673 73.1598 43.6577 72.8469 43.8385 72.6384C44.0239 72.4298 44.2742 72.3255 44.5894 72.3255C44.8999 72.3255 45.1502 72.4298 45.3402 72.6384C45.5349 72.8423 45.6323 73.1552 45.6323 73.577ZM64.175 81.5378L63.6883 80.2585H59.5445L59.0578 81.5656C58.8678 82.0754 58.7056 82.4207 58.5711 82.6015C58.4367 82.7776 58.2166 82.8657 57.9106 82.8657C57.6511 82.8657 57.4216 82.7707 57.2223 82.5807C57.023 82.3906 56.9234 82.1751 56.9234 81.9341C56.9234 81.795 56.9465 81.6513 56.9929 81.503C57.0392 81.3547 57.1157 81.1484 57.2223 80.8842L59.8296 74.2653C59.9037 74.0752 59.9918 73.8481 60.0938 73.5839C60.2004 73.3151 60.3116 73.0926 60.4275 72.9165C60.548 72.7403 60.7033 72.599 60.8933 72.4924C61.088 72.3811 61.3267 72.3255 61.6094 72.3255C61.8968 72.3255 62.1355 72.3811 62.3256 72.4924C62.5202 72.599 62.6755 72.738 62.7914 72.9095C62.9119 73.081 63.0116 73.2664 63.0904 73.4657C63.1738 73.6604 63.2781 73.9223 63.4032 74.2514L66.0661 80.8286C66.2747 81.3292 66.379 81.693 66.379 81.9202C66.379 82.1565 66.2793 82.3744 66.08 82.5737C65.8853 82.7684 65.6489 82.8657 65.3708 82.8657C65.2086 82.8657 65.0695 82.8356 64.9537 82.7753C64.8378 82.7197 64.7405 82.6432 64.6617 82.5459C64.5829 82.4439 64.4971 82.291 64.4044 82.087C64.3163 81.8784 64.2399 81.6953 64.175 81.5378ZM60.0868 78.708H63.1321L61.5955 74.5017L60.0868 78.708ZM70.5923 73.5631L74.5622 79.5702V73.5074C74.5622 73.1135 74.6457 72.8191 74.8125 72.6245C74.984 72.4251 75.2135 72.3255 75.5008 72.3255C75.7975 72.3255 76.0316 72.4251 76.2031 72.6245C76.3746 72.8191 76.4603 73.1135 76.4603 73.5074V81.5238C76.4603 82.4184 76.0895 82.8657 75.3479 82.8657C75.1625 82.8657 74.9956 82.8379 74.8473 82.7823C74.699 82.7313 74.5599 82.6479 74.4301 82.532C74.3004 82.4161 74.1798 82.2817 74.0686 82.1287C73.9574 81.9711 73.8461 81.8112 73.7349 81.649L69.8622 75.7114V81.6838C69.8622 82.0731 69.7719 82.3674 69.5911 82.5667C69.4103 82.7661 69.1786 82.8657 68.8958 82.8657C68.6038 82.8657 68.3697 82.7661 68.1936 82.5667C68.0175 82.3628 67.9294 82.0685 67.9294 81.6838V73.8203C67.9294 73.4866 67.9665 73.2247 68.0406 73.0347C68.1287 72.8261 68.2747 72.6569 68.4787 72.5271C68.6826 72.3927 68.9028 72.3255 69.1392 72.3255C69.3246 72.3255 69.4822 72.3556 69.6119 72.4159C69.7464 72.4761 69.8622 72.5572 69.9596 72.6592C70.0616 72.7612 70.1635 72.8933 70.2655 73.0555C70.3721 73.2177 70.481 73.3869 70.5923 73.5631ZM80.9934 81.6073V78.3743L78.5044 74.5156C78.2865 74.1679 78.1313 73.8968 78.0386 73.7021C77.9505 73.5074 77.9065 73.3383 77.9065 73.1946C77.9065 72.9582 77.9968 72.7542 78.1776 72.5827C78.363 72.4112 78.5901 72.3255 78.859 72.3255C79.1417 72.3255 79.3549 72.4066 79.4986 72.5688C79.6469 72.7264 79.8671 73.0439 80.1591 73.5213L82.0641 76.6153L83.99 73.5213C84.1059 73.3313 84.2032 73.1714 84.282 73.0416C84.3608 72.9118 84.4466 72.7913 84.5393 72.6801C84.6366 72.5642 84.7432 72.4761 84.8591 72.4159C84.975 72.3556 85.1164 72.3255 85.2832 72.3255C85.5428 72.3255 85.7583 72.4112 85.9298 72.5827C86.106 72.7496 86.194 72.9443 86.194 73.1668C86.194 73.3475 86.15 73.5283 86.0619 73.7091C85.9739 73.8898 85.8232 74.1401 85.61 74.46L83.0584 78.3743V81.6073C83.0584 82.0291 82.961 82.3443 82.7664 82.5528C82.5717 82.7614 82.3237 82.8657 82.0224 82.8657C81.7165 82.8657 81.4685 82.7637 81.2785 82.5598C81.0885 82.3512 80.9934 82.0337 80.9934 81.6073ZM94.2382 74.2027H91.9856V81.6073C91.9856 82.0337 91.8906 82.3512 91.7005 82.5598C91.5105 82.7637 91.2648 82.8657 90.9635 82.8657C90.6576 82.8657 90.4073 82.7614 90.2127 82.5528C90.0226 82.3443 89.9276 82.0291 89.9276 81.6073V74.2027H87.6749C87.3227 74.2027 87.0608 74.1262 86.8893 73.9733C86.7178 73.8157 86.632 73.6094 86.632 73.3545C86.632 73.0903 86.7201 72.8817 86.8962 72.7287C87.077 72.5758 87.3366 72.4993 87.6749 72.4993H94.2382C94.5951 72.4993 94.8593 72.5781 95.0308 72.7357C95.207 72.8933 95.295 73.0996 95.295 73.3545C95.295 73.6094 95.207 73.8157 95.0308 73.9733C94.8547 74.1262 94.5905 74.2027 94.2382 74.2027ZM98.5976 73.577V76.4971H103.054V73.577C103.054 73.1598 103.147 72.8469 103.332 72.6384C103.522 72.4298 103.77 72.3255 104.076 72.3255C104.387 72.3255 104.637 72.4298 104.827 72.6384C105.022 72.8423 105.119 73.1552 105.119 73.577V81.6073C105.119 82.0291 105.022 82.3443 104.827 82.5528C104.632 82.7614 104.382 82.8657 104.076 82.8657C103.766 82.8657 103.518 82.7614 103.332 82.5528C103.147 82.3396 103.054 82.0244 103.054 81.6073V78.1796H98.5976V81.6073C98.5976 82.0291 98.5002 82.3443 98.3055 82.5528C98.1109 82.7614 97.8606 82.8657 97.5547 82.8657C97.2441 82.8657 96.9961 82.7614 96.8107 82.5528C96.6253 82.3396 96.5326 82.0244 96.5326 81.6073V73.577C96.5326 73.1598 96.623 72.8469 96.8038 72.6384C96.9892 72.4298 97.2395 72.3255 97.5547 72.3255C97.8652 72.3255 98.1155 72.4298 98.3055 72.6384C98.5002 72.8423 98.5976 73.1552 98.5976 73.577ZM107.42 81.6073V73.577C107.42 73.1598 107.515 72.8469 107.706 72.6384C107.896 72.4298 108.141 72.3255 108.443 72.3255C108.753 72.3255 109.003 72.4298 109.193 72.6384C109.388 72.8423 109.485 73.1552 109.485 73.577V81.6073C109.485 82.0291 109.388 82.3443 109.193 82.5528C109.003 82.7614 108.753 82.8657 108.443 82.8657C108.146 82.8657 107.9 82.7614 107.706 82.5528C107.515 82.3396 107.42 82.0244 107.42 81.6073ZM114.491 73.5631L118.461 79.5702V73.5074C118.461 73.1135 118.545 72.8191 118.712 72.6245C118.883 72.4251 119.113 72.3255 119.4 72.3255C119.697 72.3255 119.931 72.4251 120.102 72.6245C120.274 72.8191 120.359 73.1135 120.359 73.5074V81.5238C120.359 82.4184 119.989 82.8657 119.247 82.8657C119.062 82.8657 118.895 82.8379 118.746 82.7823C118.598 82.7313 118.459 82.6479 118.329 82.532C118.199 82.4161 118.079 82.2817 117.968 82.1287C117.856 81.9711 117.745 81.8112 117.634 81.649L113.761 75.7114V81.6838C113.761 82.0731 113.671 82.3674 113.49 82.5667C113.309 82.7661 113.078 82.8657 112.795 82.8657C112.503 82.8657 112.269 82.7661 112.093 82.5667C111.917 82.3628 111.828 82.0685 111.828 81.6838V73.8203C111.828 73.4866 111.866 73.2247 111.94 73.0347C112.028 72.8261 112.174 72.6569 112.378 72.5271C112.582 72.3927 112.802 72.3255 113.038 72.3255C113.224 72.3255 113.381 72.3556 113.511 72.4159C113.645 72.4761 113.761 72.5572 113.859 72.6592C113.961 72.7612 114.063 72.8933 114.165 73.0555C114.271 73.2177 114.38 73.3869 114.491 73.5631ZM131.929 78.5481V80.5018C131.929 80.7614 131.903 80.97 131.852 81.1275C131.801 81.2805 131.706 81.4196 131.567 81.5447C131.433 81.6699 131.259 81.7904 131.046 81.9062C130.429 82.24 129.836 82.4833 129.266 82.6363C128.696 82.7892 128.074 82.8657 127.402 82.8657C126.619 82.8657 125.905 82.7452 125.261 82.5042C124.617 82.2631 124.067 81.9132 123.613 81.4543C123.159 80.9954 122.809 80.4392 122.563 79.7857C122.322 79.1321 122.202 78.4021 122.202 77.5956C122.202 76.803 122.32 76.0776 122.556 75.4194C122.793 74.7612 123.14 74.2027 123.599 73.7438C124.058 73.285 124.617 72.935 125.275 72.694C125.933 72.4483 126.679 72.3255 127.514 72.3255C128.2 72.3255 128.807 72.4182 129.335 72.6036C129.864 72.7844 130.292 73.0138 130.621 73.2919C130.951 73.57 131.199 73.8643 131.365 74.1749C131.532 74.4854 131.616 74.7612 131.616 75.0023C131.616 75.2618 131.518 75.4843 131.324 75.6697C131.134 75.8505 130.904 75.9409 130.635 75.9409C130.487 75.9409 130.343 75.9061 130.204 75.8366C130.07 75.7671 129.956 75.6697 129.864 75.5446C129.609 75.1459 129.393 74.8447 129.217 74.6407C129.041 74.4368 128.802 74.2653 128.501 74.1262C128.204 73.9872 127.824 73.9176 127.361 73.9176C126.883 73.9176 126.457 74.0011 126.081 74.1679C125.706 74.3302 125.384 74.5689 125.115 74.8841C124.851 75.1946 124.647 75.577 124.503 76.0313C124.364 76.4855 124.295 76.9884 124.295 77.54C124.295 78.7358 124.568 79.6559 125.115 80.3002C125.667 80.9445 126.434 81.2666 127.416 81.2666C127.894 81.2666 128.341 81.204 128.758 81.0789C129.18 80.9537 129.606 80.7753 130.037 80.5435V78.8888H128.438C128.054 78.8888 127.762 78.8309 127.562 78.715C127.368 78.5991 127.27 78.4021 127.27 78.124C127.27 77.8969 127.351 77.7092 127.514 77.5608C127.681 77.4125 127.905 77.3384 128.188 77.3384H130.531C130.818 77.3384 131.062 77.3638 131.261 77.4148C131.46 77.4658 131.62 77.5794 131.741 77.7555C131.866 77.9316 131.929 78.1958 131.929 78.5481ZM139.82 79.8274H137.623C137.289 79.8274 137.034 79.7509 136.858 79.598C136.687 79.4404 136.601 79.2387 136.601 78.9931C136.601 78.7428 136.684 78.5412 136.851 78.3882C137.023 78.2306 137.28 78.1518 137.623 78.1518H139.82C140.163 78.1518 140.418 78.2306 140.585 78.3882C140.756 78.5412 140.842 78.7428 140.842 78.9931C140.842 79.2387 140.758 79.4404 140.592 79.598C140.425 79.7509 140.167 79.8274 139.82 79.8274ZM155.067 78.5481V80.5018C155.067 80.7614 155.042 80.97 154.991 81.1275C154.94 81.2805 154.845 81.4196 154.705 81.5447C154.571 81.6699 154.397 81.7904 154.184 81.9062C153.568 82.24 152.974 82.4833 152.404 82.6363C151.834 82.7892 151.213 82.8657 150.541 82.8657C149.757 82.8657 149.044 82.7452 148.399 82.5042C147.755 82.2631 147.206 81.9132 146.752 81.4543C146.297 80.9954 145.947 80.4392 145.702 79.7857C145.461 79.1321 145.34 78.4021 145.34 77.5956C145.34 76.803 145.458 76.0776 145.695 75.4194C145.931 74.7612 146.279 74.2027 146.738 73.7438C147.197 73.285 147.755 72.935 148.413 72.694C149.071 72.4483 149.818 72.3255 150.652 72.3255C151.338 72.3255 151.945 72.4182 152.474 72.6036C153.002 72.7844 153.431 73.0138 153.76 73.2919C154.089 73.57 154.337 73.8643 154.504 74.1749C154.671 74.4854 154.754 74.7612 154.754 75.0023C154.754 75.2618 154.657 75.4843 154.462 75.6697C154.272 75.8505 154.043 75.9409 153.774 75.9409C153.625 75.9409 153.482 75.9061 153.343 75.8366C153.208 75.7671 153.095 75.6697 153.002 75.5446C152.747 75.1459 152.532 74.8447 152.355 74.6407C152.179 74.4368 151.941 74.2653 151.639 74.1262C151.343 73.9872 150.963 73.9176 150.499 73.9176C150.022 73.9176 149.595 74.0011 149.22 74.1679C148.844 74.3302 148.522 74.5689 148.253 74.8841C147.989 75.1946 147.785 75.577 147.642 76.0313C147.503 76.4855 147.433 76.9884 147.433 77.54C147.433 78.7358 147.706 79.6559 148.253 80.3002C148.805 80.9445 149.572 81.2666 150.555 81.2666C151.032 81.2666 151.479 81.204 151.897 81.0789C152.318 80.9537 152.745 80.7753 153.176 80.5435V78.8888H151.577C151.192 78.8888 150.9 78.8309 150.701 78.715C150.506 78.5991 150.409 78.4021 150.409 78.124C150.409 77.8969 150.49 77.7092 150.652 77.5608C150.819 77.4125 151.044 77.3384 151.326 77.3384H153.67C153.957 77.3384 154.2 77.3638 154.4 77.4148C154.599 77.4658 154.759 77.5794 154.879 77.7555C155.004 77.9316 155.067 78.1958 155.067 78.5481ZM163.751 74.0915H159.1V76.5944H163.382C163.698 76.5944 163.932 76.6663 164.085 76.81C164.242 76.949 164.321 77.1344 164.321 77.3662C164.321 77.5979 164.244 77.788 164.092 77.9363C163.939 78.08 163.702 78.1518 163.382 78.1518H159.1V81.0511H163.911C164.235 81.0511 164.479 81.1275 164.641 81.2805C164.808 81.4288 164.891 81.6281 164.891 81.8784C164.891 82.1195 164.808 82.3165 164.641 82.4694C164.479 82.6177 164.235 82.6919 163.911 82.6919H158.3C157.85 82.6919 157.526 82.5922 157.327 82.3929C157.132 82.1936 157.035 81.8715 157.035 81.4265V73.7647C157.035 73.468 157.079 73.227 157.167 73.0416C157.255 72.8516 157.391 72.7148 157.577 72.6314C157.767 72.5433 158.008 72.4993 158.3 72.4993H163.751C164.08 72.4993 164.323 72.5735 164.481 72.7218C164.643 72.8655 164.724 73.0555 164.724 73.2919C164.724 73.5329 164.643 73.7276 164.481 73.8759C164.323 74.0196 164.08 74.0915 163.751 74.0915ZM173.151 74.2027H170.898V81.6073C170.898 82.0337 170.803 82.3512 170.613 82.5598C170.423 82.7637 170.177 82.8657 169.876 82.8657C169.57 82.8657 169.32 82.7614 169.125 82.5528C168.935 82.3443 168.84 82.0291 168.84 81.6073V74.2027H166.588C166.235 74.2027 165.973 74.1262 165.802 73.9733C165.63 73.8157 165.545 73.6094 165.545 73.3545C165.545 73.0903 165.633 72.8817 165.809 72.7287C165.99 72.5758 166.249 72.4993 166.588 72.4993H173.151C173.508 72.4993 173.772 72.5781 173.943 72.7357C174.12 72.8933 174.208 73.0996 174.208 73.3545C174.208 73.6094 174.12 73.8157 173.943 73.9733C173.767 74.1262 173.503 74.2027 173.151 74.2027ZM185.707 74.0915H181.056V76.5944H185.339C185.654 76.5944 185.888 76.6663 186.041 76.81C186.199 76.949 186.277 77.1344 186.277 77.3662C186.277 77.5979 186.201 77.788 186.048 77.9363C185.895 78.08 185.659 78.1518 185.339 78.1518H181.056V81.0511H185.867C186.192 81.0511 186.435 81.1275 186.597 81.2805C186.764 81.4288 186.848 81.6281 186.848 81.8784C186.848 82.1195 186.764 82.3165 186.597 82.4694C186.435 82.6177 186.192 82.6919 185.867 82.6919H180.256C179.807 82.6919 179.482 82.5922 179.283 82.3929C179.088 82.1936 178.991 81.8715 178.991 81.4265V73.7647C178.991 73.468 179.035 73.227 179.123 73.0416C179.211 72.8516 179.348 72.7148 179.533 72.6314C179.723 72.5433 179.964 72.4993 180.256 72.4993H185.707C186.036 72.4993 186.28 72.5735 186.437 72.7218C186.6 72.8655 186.681 73.0555 186.681 73.2919C186.681 73.5329 186.6 73.7276 186.437 73.8759C186.28 74.0196 186.036 74.0915 185.707 74.0915ZM189.997 73.6813L192.305 80.5157L194.621 73.6326C194.741 73.2711 194.832 73.0208 194.892 72.8817C194.952 72.738 195.052 72.6105 195.191 72.4993C195.33 72.3834 195.52 72.3255 195.761 72.3255C195.937 72.3255 196.099 72.3695 196.248 72.4576C196.401 72.5457 196.519 72.6639 196.602 72.8122C196.69 72.9559 196.734 73.1019 196.734 73.2502C196.734 73.3522 196.72 73.4634 196.693 73.5839C196.665 73.6998 196.63 73.8157 196.588 73.9316C196.547 74.0428 196.505 74.1587 196.463 74.2792L193.995 80.9398C193.907 81.1948 193.819 81.4381 193.731 81.6699C193.643 81.897 193.541 82.0986 193.425 82.2747C193.309 82.4462 193.154 82.5876 192.959 82.6988C192.769 82.8101 192.535 82.8657 192.257 82.8657C191.979 82.8657 191.742 82.8101 191.548 82.6988C191.358 82.5922 191.202 82.4509 191.082 82.2747C190.966 82.094 190.864 81.89 190.776 81.6629C190.688 81.4358 190.6 81.1948 190.512 80.9398L188.085 74.3348C188.043 74.2143 187.999 74.0961 187.953 73.9802C187.911 73.8643 187.874 73.7392 187.842 73.6048C187.814 73.4704 187.8 73.3568 187.8 73.2641C187.8 73.0277 187.895 72.8122 188.085 72.6175C188.275 72.4228 188.514 72.3255 188.801 72.3255C189.154 72.3255 189.402 72.4344 189.545 72.6523C189.694 72.8655 189.844 73.2085 189.997 73.6813ZM205.008 74.0915H200.357V76.5944H204.639C204.955 76.5944 205.189 76.6663 205.342 76.81C205.499 76.949 205.578 77.1344 205.578 77.3662C205.578 77.5979 205.502 77.788 205.349 77.9363C205.196 78.08 204.959 78.1518 204.639 78.1518H200.357V81.0511H205.168C205.492 81.0511 205.736 81.1275 205.898 81.2805C206.065 81.4288 206.148 81.6281 206.148 81.8784C206.148 82.1195 206.065 82.3165 205.898 82.4694C205.736 82.6177 205.492 82.6919 205.168 82.6919H199.557C199.107 82.6919 198.783 82.5922 198.584 82.3929C198.389 82.1936 198.292 81.8715 198.292 81.4265V73.7647C198.292 73.468 198.336 73.227 198.424 73.0416C198.512 72.8516 198.649 72.7148 198.834 72.6314C199.024 72.5433 199.265 72.4993 199.557 72.4993H205.008C205.337 72.4993 205.58 72.5735 205.738 72.7218C205.9 72.8655 205.981 73.0555 205.981 73.2919C205.981 73.5329 205.9 73.7276 205.738 73.8759C205.58 74.0196 205.337 74.0915 205.008 74.0915ZM210.563 78.3326H209.84V81.6073C209.84 82.0383 209.745 82.3558 209.555 82.5598C209.365 82.7637 209.117 82.8657 208.811 82.8657C208.482 82.8657 208.227 82.7591 208.046 82.5459C207.865 82.3327 207.775 82.0198 207.775 81.6073V73.7647C207.775 73.3197 207.875 72.9976 208.074 72.7983C208.273 72.599 208.595 72.4993 209.04 72.4993H212.399C212.862 72.4993 213.258 72.5202 213.587 72.5619C213.917 72.599 214.213 72.6778 214.477 72.7983C214.797 72.9327 215.08 73.125 215.326 73.3753C215.571 73.6256 215.757 73.9176 215.882 74.2514C216.012 74.5805 216.077 74.9304 216.077 75.3012C216.077 76.0614 215.861 76.6686 215.43 77.1228C215.003 77.5771 214.355 77.8992 213.483 78.0892C213.849 78.2839 214.199 78.5713 214.533 78.9514C214.867 79.3314 215.163 79.737 215.423 80.1681C215.687 80.5945 215.891 80.9815 216.035 81.3292C216.183 81.6722 216.257 81.9086 216.257 82.0383C216.257 82.1728 216.213 82.3072 216.125 82.4416C216.042 82.5714 215.926 82.6734 215.778 82.7475C215.629 82.8263 215.458 82.8657 215.263 82.8657C215.031 82.8657 214.837 82.8101 214.679 82.6988C214.521 82.5922 214.385 82.4555 214.269 82.2886C214.158 82.1218 214.005 81.8761 213.81 81.5517L212.983 80.175C212.686 79.6698 212.419 79.2851 212.183 79.0209C211.951 78.7567 211.715 78.5759 211.474 78.4786C211.233 78.3813 210.929 78.3326 210.563 78.3326ZM211.745 74.0497H209.84V76.8517H211.689C212.185 76.8517 212.603 76.81 212.941 76.7265C213.279 76.6385 213.536 76.4924 213.713 76.2885C213.893 76.0799 213.984 75.7949 213.984 75.4333C213.984 75.1506 213.912 74.9026 213.768 74.6894C213.625 74.4715 213.425 74.3093 213.17 74.2027C212.929 74.1007 212.454 74.0497 211.745 74.0497ZM219.768 81.6073V78.3743L217.279 74.5156C217.061 74.1679 216.906 73.8968 216.813 73.7021C216.725 73.5074 216.681 73.3383 216.681 73.1946C216.681 72.9582 216.772 72.7542 216.953 72.5827C217.138 72.4112 217.365 72.3255 217.634 72.3255C217.917 72.3255 218.13 72.4066 218.274 72.5688C218.422 72.7264 218.642 73.0439 218.934 73.5213L220.839 76.6153L222.765 73.5213C222.881 73.3313 222.978 73.1714 223.057 73.0416C223.136 72.9118 223.222 72.7913 223.314 72.6801C223.412 72.5642 223.518 72.4761 223.634 72.4159C223.75 72.3556 223.891 72.3255 224.058 72.3255C224.318 72.3255 224.533 72.4112 224.705 72.5827C224.881 72.7496 224.969 72.9443 224.969 73.1668C224.969 73.3475 224.925 73.5283 224.837 73.7091C224.749 73.8898 224.598 74.1401 224.385 74.46L221.833 78.3743V81.6073C221.833 82.0291 221.736 82.3443 221.541 82.5528C221.347 82.7614 221.099 82.8657 220.797 82.8657C220.491 82.8657 220.243 82.7637 220.053 82.5598C219.863 82.3512 219.768 82.0337 219.768 81.6073ZM233.013 74.2027H230.761V81.6073C230.761 82.0337 230.666 82.3512 230.475 82.5598C230.285 82.7637 230.04 82.8657 229.738 82.8657C229.433 82.8657 229.182 82.7614 228.988 82.5528C228.798 82.3443 228.703 82.0291 228.703 81.6073V74.2027H226.45C226.098 74.2027 225.836 74.1262 225.664 73.9733C225.493 73.8157 225.407 73.6094 225.407 73.3545C225.407 73.0903 225.495 72.8817 225.671 72.7287C225.852 72.5758 226.112 72.4993 226.45 72.4993H233.013C233.37 72.4993 233.634 72.5781 233.806 72.7357C233.982 72.8933 234.07 73.0996 234.07 73.3545C234.07 73.6094 233.982 73.8157 233.806 73.9733C233.63 74.1262 233.365 74.2027 233.013 74.2027ZM237.372 73.577V76.4971H241.829V73.577C241.829 73.1598 241.922 72.8469 242.107 72.6384C242.297 72.4298 242.545 72.3255 242.851 72.3255C243.162 72.3255 243.412 72.4298 243.602 72.6384C243.797 72.8423 243.894 73.1552 243.894 73.577V81.6073C243.894 82.0291 243.797 82.3443 243.602 82.5528C243.407 82.7614 243.157 82.8657 242.851 82.8657C242.541 82.8657 242.293 82.7614 242.107 82.5528C241.922 82.3396 241.829 82.0244 241.829 81.6073V78.1796H237.372V81.6073C237.372 82.0291 237.275 82.3443 237.08 82.5528C236.886 82.7614 236.636 82.8657 236.33 82.8657C236.019 82.8657 235.771 82.7614 235.586 82.5528C235.4 82.3396 235.308 82.0244 235.308 81.6073V73.577C235.308 73.1598 235.398 72.8469 235.579 72.6384C235.764 72.4298 236.014 72.3255 236.33 72.3255C236.64 72.3255 236.89 72.4298 237.08 72.6384C237.275 72.8423 237.372 73.1552 237.372 73.577ZM246.195 81.6073V73.577C246.195 73.1598 246.29 72.8469 246.48 72.6384C246.671 72.4298 246.916 72.3255 247.217 72.3255C247.528 72.3255 247.778 72.4298 247.968 72.6384C248.163 72.8423 248.26 73.1552 248.26 73.577V81.6073C248.26 82.0291 248.163 82.3443 247.968 82.5528C247.778 82.7614 247.528 82.8657 247.217 82.8657C246.921 82.8657 246.675 82.7614 246.48 82.5528C246.29 82.3396 246.195 82.0244 246.195 81.6073ZM253.266 73.5631L257.236 79.5702V73.5074C257.236 73.1135 257.32 72.8191 257.487 72.6245C257.658 72.4251 257.887 72.3255 258.175 72.3255C258.471 72.3255 258.706 72.4251 258.877 72.6245C259.049 72.8191 259.134 73.1135 259.134 73.5074V81.5238C259.134 82.4184 258.763 82.8657 258.022 82.8657C257.836 82.8657 257.67 82.8379 257.521 82.7823C257.373 82.7313 257.234 82.6479 257.104 82.532C256.974 82.4161 256.854 82.2817 256.743 82.1287C256.631 81.9711 256.52 81.8112 256.409 81.649L252.536 75.7114V81.6838C252.536 82.0731 252.446 82.3674 252.265 82.5667C252.084 82.7661 251.853 82.8657 251.57 82.8657C251.278 82.8657 251.044 82.7661 250.868 82.5667C250.691 82.3628 250.603 82.0685 250.603 81.6838V73.8203C250.603 73.4866 250.64 73.2247 250.715 73.0347C250.803 72.8261 250.949 72.6569 251.153 72.5271C251.357 72.3927 251.577 72.3255 251.813 72.3255C251.999 72.3255 252.156 72.3556 252.286 72.4159C252.42 72.4761 252.536 72.5572 252.634 72.6592C252.736 72.7612 252.838 72.8933 252.939 73.0555C253.046 73.2177 253.155 73.3869 253.266 73.5631ZM270.704 78.5481V80.5018C270.704 80.7614 270.678 80.97 270.627 81.1275C270.576 81.2805 270.481 81.4196 270.342 81.5447C270.208 81.6699 270.034 81.7904 269.821 81.9062C269.204 82.24 268.611 82.4833 268.041 82.6363C267.471 82.7892 266.849 82.8657 266.177 82.8657C265.394 82.8657 264.68 82.7452 264.036 82.5042C263.392 82.2631 262.842 81.9132 262.388 81.4543C261.934 80.9954 261.584 80.4392 261.338 79.7857C261.097 79.1321 260.977 78.4021 260.977 77.5956C260.977 76.803 261.095 76.0776 261.331 75.4194C261.568 74.7612 261.915 74.2027 262.374 73.7438C262.833 73.285 263.392 72.935 264.05 72.694C264.708 72.4483 265.454 72.3255 266.289 72.3255C266.975 72.3255 267.582 72.4182 268.11 72.6036C268.639 72.7844 269.067 73.0138 269.396 73.2919C269.725 73.57 269.973 73.8643 270.14 74.1749C270.307 74.4854 270.391 74.7612 270.391 75.0023C270.391 75.2618 270.293 75.4843 270.099 75.6697C269.909 75.8505 269.679 75.9409 269.41 75.9409C269.262 75.9409 269.118 75.9061 268.979 75.8366C268.845 75.7671 268.731 75.6697 268.639 75.5446C268.384 75.1459 268.168 74.8447 267.992 74.6407C267.816 74.4368 267.577 74.2653 267.276 74.1262C266.979 73.9872 266.599 73.9176 266.136 73.9176C265.658 73.9176 265.232 74.0011 264.856 74.1679C264.481 74.3302 264.159 74.5689 263.89 74.8841C263.626 75.1946 263.422 75.577 263.278 76.0313C263.139 76.4855 263.069 76.9884 263.069 77.54C263.069 78.7358 263.343 79.6559 263.89 80.3002C264.441 80.9445 265.209 81.2666 266.191 81.2666C266.669 81.2666 267.116 81.204 267.533 81.0789C267.955 80.9537 268.381 80.7753 268.812 80.5435V78.8888H267.213C266.829 78.8888 266.537 78.8309 266.337 78.715C266.143 78.5991 266.045 78.4021 266.045 78.124C266.045 77.8969 266.126 77.7092 266.289 77.5608C266.455 77.4125 266.68 77.3384 266.963 77.3384H269.306C269.593 77.3384 269.837 77.3638 270.036 77.4148C270.235 77.4658 270.395 77.5794 270.516 77.7555C270.641 77.9316 270.704 78.1958 270.704 78.5481Z" fill="#00A512"/>
<path d="M185.548 64.3188C184.779 64.2835 184.048 64.2654 183.32 64.2112C182.788 64.1716 182.257 64.1014 181.73 64.0154C179.619 63.68 177.557 63.0818 175.594 62.2347C174.408 61.7178 173.262 61.1154 172.164 60.4322C169.92 59.029 167.888 57.3113 166.132 55.3316C164.575 53.5908 163.231 51.6704 162.13 49.6112C161.194 47.8794 160.428 46.0611 159.844 44.1816C159.407 42.7874 159.072 41.363 158.843 39.9199C158.683 38.9785 158.577 38.0287 158.525 37.0751C158.52 36.9347 158.516 36.7936 158.498 36.6546C158.4 35.6193 158.373 34.5785 158.419 33.5396C158.419 33.399 158.427 33.2586 158.444 33.1191C158.51 32.645 158.523 32.1673 158.555 31.6908C158.575 31.411 158.608 31.1318 158.646 30.8538C158.715 30.353 158.778 29.8519 158.86 29.3526C159.159 27.5502 159.623 25.7793 160.248 24.0624C161.327 21.0686 162.896 18.2745 164.889 15.794C167.986 11.8988 172.068 8.90219 176.713 7.1145C178.286 6.50347 179.914 6.04658 181.576 5.75026C182.126 5.63281 182.683 5.55482 183.244 5.51688C183.301 5.51456 183.357 5.50918 183.412 5.50075C184.921 5.3286 186.443 5.29366 187.958 5.39637C188.651 5.5116 189.353 5.54946 190.048 5.66355C191.212 5.85533 192.362 6.13012 193.487 6.48583C195.499 7.12321 197.423 8.01122 199.213 9.12894C201.483 10.5443 203.537 12.2788 205.313 14.2793C206.906 16.0631 208.279 18.0317 209.403 20.1429C210.476 22.152 211.326 24.2731 211.935 26.4681C212.198 27.4157 212.407 28.3754 212.58 29.3443C212.683 29.9258 212.735 30.5136 212.841 31.0943C212.867 31.2892 212.884 31.4852 212.891 31.6818C212.908 31.9059 212.909 32.1323 212.943 32.3539C213.017 32.9113 213.051 33.4731 213.046 34.0353C213.052 34.6534 213.052 35.2716 213.046 35.8898C213.054 36.4521 213.019 37.0141 212.94 37.5708C212.926 37.6538 212.922 37.7384 212.916 37.8225C212.783 39.6448 212.47 41.4495 211.982 43.2105C210.964 47.0535 209.174 50.649 206.721 53.7779C205.878 54.8674 204.953 55.8911 203.954 56.8404C201.834 58.8612 199.409 60.536 196.768 61.8034C195.296 62.5059 193.76 63.0666 192.181 63.4778C191.123 63.7653 190.044 63.9694 188.954 64.0882C188.232 64.2042 187.503 64.2633 186.771 64.2649C186.491 64.2761 186.211 64.3034 185.93 64.3176C185.79 64.3247 185.649 64.3188 185.548 64.3188ZM199.099 35.0957C199.084 34.5754 199.07 34.1262 199.059 33.677C199.024 32.7509 198.915 31.829 198.735 30.92C198.363 28.9275 197.663 27.0108 196.662 25.2486C195.753 23.594 194.541 22.125 193.09 20.918C192.077 20.0658 190.923 19.3965 189.68 18.94C188.704 18.5775 187.676 18.3742 186.635 18.3378C186.016 18.3234 185.398 18.3345 184.781 18.3772C184.669 18.3849 184.557 18.3942 184.446 18.4117C182.999 18.6372 181.598 19.092 180.295 19.7592C178.645 20.6209 177.196 21.8213 176.042 23.2818C175.355 24.1374 174.769 25.0691 174.296 26.0585C173.356 28.0117 172.766 30.1144 172.551 32.2713C172.534 32.4389 172.52 32.6072 172.493 32.7733C172.443 33.1068 172.417 33.4434 172.415 33.7806C172.37 34.8754 172.411 35.972 172.537 37.0605C172.6 37.5045 172.639 37.9517 172.714 38.3955C172.948 39.8095 173.328 41.1953 173.848 42.5308C174.461 44.1344 175.321 45.6325 176.396 46.971C177.084 47.8253 177.88 48.5866 178.765 49.2358C179.97 50.1187 181.341 50.7491 182.795 51.0889C183.208 51.1854 183.626 51.2241 184.041 51.2943C184.43 51.3536 184.823 51.3848 185.216 51.3876C185.834 51.3872 186.451 51.3454 187.064 51.2625C187.846 51.1746 188.617 51.0115 189.368 50.7755C191.497 50.1008 193.399 48.8503 194.862 47.1624C195.997 45.8735 196.916 44.409 197.581 42.8258C198.158 41.4521 198.576 40.0174 198.829 38.5492C198.876 37.9894 199.015 37.4408 199.034 36.8776C199.056 36.2601 199.079 35.6427 199.099 35.0957Z" fill="#00A512"/>
<path d="M112.216 34.6627C112.216 25.7833 112.216 16.9039 112.217 8.02453C112.217 7.7155 112.219 7.40637 112.228 7.0975C112.235 7.01388 112.252 6.93134 112.277 6.85153C112.289 6.811 112.31 6.77382 112.339 6.7432C112.367 6.71258 112.403 6.68944 112.443 6.67579C112.521 6.64481 112.604 6.62581 112.687 6.61942C112.912 6.60767 113.137 6.60498 113.362 6.60257C116.623 6.56749 119.884 6.5323 123.144 6.49698C123.65 6.49113 124.155 6.45208 124.661 6.45215C125.138 6.45221 125.616 6.49108 126.093 6.49979C127.386 6.52339 128.679 6.53865 129.972 6.56009C130.506 6.56389 131.04 6.59519 131.571 6.65385C131.933 6.69728 132.3 6.7013 132.665 6.71749C133.059 6.72418 133.451 6.75742 133.84 6.81698C133.923 6.83359 134.007 6.84389 134.091 6.8478C134.824 6.86732 135.544 6.99925 136.271 7.0724C136.69 7.11457 137.107 7.18252 137.522 7.25319C138.742 7.45286 139.95 7.72288 141.139 8.06193C142.031 8.31945 142.897 8.65902 143.725 9.07627C144.477 9.46166 145.172 9.94787 145.791 10.5214C147.075 11.7088 148.1 13.1478 148.803 14.7487C149.334 15.9289 149.71 17.173 149.921 18.4498C150.101 19.4464 150.166 20.4603 150.117 21.4717C150.044 23.2179 149.61 24.93 148.841 26.4995C147.941 28.2943 146.558 29.8031 144.849 30.857C144.036 31.36 143.17 31.7729 142.267 32.0884C142.074 32.1255 141.89 32.2018 141.728 32.3125C141.717 32.3207 141.708 32.331 141.701 32.3428C141.694 32.3547 141.69 32.3678 141.688 32.3814C141.686 32.395 141.687 32.4087 141.691 32.4219C141.695 32.435 141.702 32.4472 141.711 32.4577C141.767 32.5194 141.835 32.5692 141.911 32.6039C142.173 32.702 142.439 32.7931 142.708 32.8748C143.057 32.9812 143.41 33.0752 143.761 33.1759C144.303 33.328 144.834 33.5147 145.351 33.7348C146.698 34.3159 147.895 35.1976 148.849 36.3124C150.17 37.8549 151.139 39.6667 151.688 41.6218C151.968 42.6228 152.17 43.6441 152.293 44.6764C152.311 44.8154 152.316 44.9564 152.323 45.0967C152.373 46.1078 152.372 47.119 152.322 48.1302C152.282 48.7188 152.206 49.3046 152.097 49.8844C151.913 50.9653 151.625 52.026 151.239 53.0521C150.811 54.2137 150.243 55.3187 149.548 56.3425C149.088 57.0159 148.565 57.6442 147.987 58.2188C147.265 58.9306 146.449 59.5393 145.561 60.0277C144.676 60.5186 143.744 60.9217 142.78 61.2311C141.658 61.5991 140.509 61.8772 139.343 62.0628C138.816 62.1441 138.29 62.2354 137.762 62.316C137.568 62.3457 137.371 62.3592 137.175 62.3774C137.008 62.3931 136.837 62.392 136.672 62.4209C136.088 62.508 135.498 62.5555 134.908 62.5633C134.683 62.5721 134.457 62.5739 134.235 62.6042C133.676 62.6699 133.114 62.701 132.552 62.697C130.584 62.7194 128.616 62.7355 126.648 62.759C126.199 62.7644 125.75 62.7913 125.3 62.806C125.02 62.8152 124.738 62.8256 124.457 62.826C120.719 62.8319 116.98 62.8368 113.241 62.8405C113.072 62.8407 112.903 62.84 112.735 62.8319C112.651 62.8239 112.568 62.8106 112.487 62.7921C112.433 62.7752 112.385 62.7451 112.347 62.7046C112.308 62.6641 112.28 62.6146 112.266 62.5605C112.244 62.4508 112.229 62.3398 112.222 62.2281C112.215 61.9192 112.216 61.61 112.216 61.3009C112.216 52.4215 112.216 43.5421 112.216 34.6627ZM125.206 45.1711H125.182C125.182 46.8548 125.183 48.5385 125.184 50.2223C125.184 50.4742 125.198 50.7263 125.211 50.9781C125.223 51.0468 125.256 51.1101 125.306 51.159C125.356 51.208 125.419 51.2403 125.488 51.2515C125.516 51.2547 125.544 51.2625 125.572 51.2641C126.16 51.2964 126.748 51.3431 127.337 51.3564C128.263 51.3774 129.19 51.3798 130.116 51.3824C130.762 51.3986 131.408 51.3644 132.049 51.2801C132.188 51.2618 132.328 51.2513 132.469 51.2486C133.282 51.2006 134.087 51.0631 134.871 50.8384C135.553 50.6666 136.203 50.3874 136.797 50.0112C137.418 49.6205 137.939 49.0908 138.32 48.464C138.7 47.8372 138.93 47.1306 138.991 46.3998C139.06 45.6729 139.063 44.9411 138.998 44.2138C138.94 43.5414 138.765 42.8843 138.48 42.2725C138.12 41.4735 137.533 40.798 136.792 40.33C136.34 40.0454 135.855 39.8175 135.348 39.6514C134.354 39.3473 133.327 39.1672 132.289 39.1153C131.335 39.0872 130.38 39.0733 129.425 39.0735C128.246 39.0751 127.067 39.0983 125.888 39.1145C125.749 39.1164 125.609 39.1318 125.469 39.1436C125.416 39.157 125.366 39.1846 125.327 39.2236C125.287 39.2626 125.258 39.3115 125.244 39.3652C125.207 39.5866 125.195 39.8115 125.208 40.0356C125.206 41.7475 125.205 43.4593 125.206 45.1711ZM125.178 23.4176H125.179C125.179 24.0358 125.179 24.6539 125.179 25.2721C125.179 26.2555 125.179 27.2389 125.182 28.2223C125.183 28.4182 125.2 28.6142 125.214 28.8099C125.225 28.8648 125.252 28.9154 125.291 28.9561C125.33 28.9968 125.379 29.026 125.433 29.0406C125.57 29.0665 125.709 29.083 125.849 29.09C126.608 29.1005 127.367 29.1069 128.126 29.1092C128.773 29.1272 129.42 29.0995 130.062 29.0263C130.202 29.0094 130.342 29.0008 130.483 29.0006C131.073 28.985 131.661 28.9178 132.24 28.7998C133.044 28.6583 133.821 28.3946 134.545 28.0179C135.046 27.7591 135.49 27.4011 135.849 26.9656C136.207 26.5301 136.474 26.0263 136.632 25.4847C136.916 24.569 137.001 23.6033 136.883 22.6519C136.859 22.4569 136.821 22.2635 136.794 22.0688C136.717 21.568 136.562 21.0826 136.333 20.6304C136.136 20.2255 135.871 19.8571 135.55 19.5411C135.108 19.1056 134.585 18.7621 134.009 18.5305C133.071 18.1462 132.073 17.9247 131.06 17.8755C129.828 17.7721 128.59 17.748 127.355 17.8036C127.019 17.8296 126.68 17.8147 126.343 17.8196C126.118 17.8228 125.893 17.8247 125.668 17.8338C125.585 17.8418 125.502 17.855 125.42 17.8732C125.367 17.89 125.32 17.9208 125.283 17.9624C125.246 18.004 125.221 18.0548 125.21 18.1095C125.197 18.3615 125.18 18.6136 125.179 18.8657C125.176 20.383 125.176 21.9003 125.178 23.4176Z" fill="#00A512"/>
<path d="M238.982 62.827C231.898 62.827 224.814 62.8269 217.73 62.8266C217.505 62.8266 217.28 62.8247 217.056 62.8135C216.973 62.803 216.892 62.7834 216.813 62.7552C216.776 62.7366 216.746 62.7074 216.726 62.6714C216.706 62.6353 216.697 62.5941 216.701 62.553C216.731 62.4158 216.784 62.2844 216.856 62.1637C217.314 61.3257 217.763 60.4825 218.234 59.6516C219.897 56.7183 221.598 53.8074 223.307 50.9009C224.974 48.0671 226.639 45.2331 228.305 42.3989C229.97 39.5645 231.635 36.7298 233.299 33.8948C234.465 31.9079 235.638 29.9249 236.794 27.932C238.148 25.5989 239.493 23.2609 240.829 20.9177C241.122 20.4059 241.388 19.8787 241.66 19.3549C241.706 19.2536 241.738 19.1468 241.757 19.0371C241.76 19.0232 241.76 19.0088 241.758 18.9948C241.755 18.9808 241.75 18.9675 241.742 18.9556C241.734 18.9436 241.724 18.9333 241.713 18.9253C241.701 18.9173 241.688 18.9117 241.674 18.9088C241.622 18.8877 241.568 18.8736 241.513 18.867C241.232 18.8599 240.951 18.8564 240.67 18.8564C234.767 18.8559 228.864 18.8557 222.96 18.8558C222.679 18.8558 222.398 18.8549 222.117 18.8492C222.033 18.8474 221.949 18.8359 221.867 18.8148C221.813 18.8013 221.762 18.7741 221.721 18.7357C221.68 18.6973 221.649 18.649 221.632 18.5955C221.55 18.3556 221.505 18.105 221.496 17.8517C221.481 17.5149 221.468 17.178 221.46 16.8409C221.418 14.9867 221.432 13.1323 221.446 11.2779C221.454 10.1821 221.464 9.08631 221.477 7.99056C221.479 7.76655 221.497 7.54258 221.513 7.31893C221.526 7.25024 221.561 7.18751 221.612 7.13934C221.663 7.09118 221.727 7.05996 221.797 7.04998C221.993 7.03803 222.189 7.02604 222.386 7.02426C223.257 7.01638 224.129 7.01222 225 7.0066C225.478 7.00351 225.955 6.99828 226.432 6.96175C226.768 6.93605 227.107 6.94013 227.444 6.93844C231.942 6.91597 236.439 6.8942 240.937 6.87314C243.158 6.86225 245.378 6.85017 247.599 6.83693C247.852 6.83545 248.106 6.83678 248.357 6.81501C248.806 6.77612 249.256 6.77167 249.705 6.76949C254.147 6.74799 258.588 6.7273 263.03 6.70743C263.338 6.68414 263.648 6.69586 263.953 6.74236C264.019 6.75699 264.095 6.87306 264.071 6.93467C264.046 7.01463 264.015 7.09281 263.979 7.1687C263.803 7.48863 263.623 7.80693 263.441 8.1236C262.115 10.4397 260.787 12.7553 259.458 15.0703C258.448 16.8227 257.429 18.5706 256.403 20.3141C254.78 23.0755 253.153 25.8346 251.522 28.5913C250.196 30.8426 248.871 33.095 247.549 35.3486C246.342 37.4098 245.141 39.474 243.945 41.5412C243.016 43.146 242.092 44.7539 241.174 46.365C240.521 47.5127 239.872 48.6631 239.278 49.8433C239.192 49.988 239.128 50.1454 239.091 50.3099C239.081 50.3766 239.147 50.4949 239.213 50.5032C239.296 50.5136 239.378 50.5374 239.46 50.5399C239.685 50.5464 239.91 50.546 240.135 50.5462C242.103 50.5475 244.07 50.5486 246.038 50.5494C250.761 50.5516 255.484 50.5541 260.206 50.557C260.515 50.542 260.825 50.5528 261.132 50.5892C261.185 50.6053 261.234 50.6338 261.274 50.6725C261.314 50.7112 261.344 50.7589 261.362 50.8117C261.373 50.8664 261.392 50.9201 261.399 50.9754C261.409 51.059 261.415 51.1431 261.417 51.2273C261.421 51.424 261.421 51.6207 261.422 51.8173C261.43 55.0766 261.437 58.3359 261.445 61.5952C261.445 61.82 261.444 62.0448 261.437 62.2694C261.43 62.3531 261.417 62.4363 261.399 62.5183C261.375 62.5685 261.342 62.6134 261.3 62.6502C261.259 62.6871 261.211 62.7152 261.158 62.7328C260.99 62.7456 260.822 62.7633 260.654 62.7643C260.007 62.7681 259.361 62.7662 258.714 62.7662C256.887 62.7663 255.06 62.7668 253.233 62.7678C252.839 62.7686 252.446 62.7911 252.053 62.8006C251.688 62.8095 251.323 62.82 250.957 62.8201C246.965 62.8215 242.974 62.8218 238.982 62.821L238.982 62.827Z" fill="#00A512"/>
<path d="M0.111023 35.1832C0.120445 35.0041 0.136252 34.7335 0.148513 34.4628C0.164289 34.1146 0.178451 33.7663 0.191 33.4179C0.193832 33.0498 0.222026 32.6824 0.275382 32.3182C0.284299 32.2607 0.290225 32.2029 0.293134 32.1448C0.363496 31.2959 0.476547 30.451 0.631857 29.6134C1.08894 26.9578 1.86343 24.3666 2.93868 21.8958C3.76616 19.9724 4.79062 18.1398 5.99566 16.4275C7.1807 14.7477 8.55028 13.2061 10.0787 11.8315C12.7981 9.38791 16.0118 7.55857 19.5013 6.46792C20.5009 6.15926 21.5183 5.91177 22.548 5.72683C23.1004 5.62608 23.6588 5.56115 24.2151 5.4842C24.33 5.46832 24.447 5.46749 24.563 5.45992C24.6983 5.45108 24.835 5.4514 24.9688 5.43223C25.585 5.3605 26.2053 5.33127 26.8254 5.34474C27.0967 5.34341 27.368 5.3483 27.6392 5.35209C28.0268 5.35758 28.4137 5.38397 28.7984 5.43116C29.1824 5.47816 29.571 5.47345 29.9548 5.54172C30.2592 5.59588 30.5682 5.62587 30.8744 5.67471C31.9456 5.84633 33.0041 6.08977 34.0427 6.40338C35.4719 6.83343 36.8602 7.38924 38.1913 8.06429C39.6773 8.8205 41.0876 9.71702 42.4029 10.7416C43.483 11.5942 44.5003 12.5234 45.4469 13.5221C46.857 14.9915 48.0751 16.6338 49.0719 18.4097C49.8736 19.826 50.5788 21.2948 51.1828 22.806C51.8145 24.3687 52.3251 25.9777 52.7098 27.6188C52.8937 28.3712 53.0364 29.1332 53.1371 29.9012C53.2383 30.3564 53.2382 30.8249 53.3181 31.2829C53.3288 31.3597 53.3347 31.4371 53.3358 31.5146C53.3789 32.4048 53.3994 33.2954 53.3649 34.1865C53.3612 34.2822 53.3428 34.3774 53.3302 34.4728C53.3187 34.4988 53.2993 34.5206 53.2747 34.535C53.2501 34.5493 53.2216 34.5556 53.1933 34.5529C53.1365 34.5419 53.081 34.5249 53.0279 34.5022C52.772 34.3645 52.5131 34.2313 52.2659 34.0792C51.6225 33.6832 50.9767 33.2902 50.3461 32.8745C48.6477 31.7548 46.9534 30.629 45.2631 29.497C43.9894 28.6482 42.7173 27.7971 41.4467 26.9438C40.5307 26.3271 39.6227 25.6985 38.7078 25.08C37.6483 24.3638 36.5752 23.6687 35.4763 23.014C34.4615 22.4078 33.4164 21.8541 32.345 21.3549C31.3097 20.869 30.231 20.4814 29.1233 20.1971C28.4684 20.0206 27.7976 19.9089 27.1208 19.8637C27.0049 19.8578 26.8896 19.8385 26.7737 19.8304C26.5806 19.8168 26.3869 19.7934 26.194 19.7984C24.8729 19.8101 23.5671 20.0825 22.3515 20.6C21.1604 21.1234 20.0668 21.845 19.1171 22.7341C18.0833 23.7027 17.2051 24.825 16.5136 26.0615C15.7795 27.3841 15.2287 28.8005 14.8765 30.2717C14.706 30.9477 14.575 31.633 14.4839 32.3242C14.4399 32.6702 14.3931 33.015 14.376 33.3634C14.3722 33.4408 14.3687 33.5185 14.3582 33.5951C14.2808 34.3662 14.2624 35.1421 14.3032 35.916C14.3052 36.0319 14.3208 36.1476 14.3321 36.2633C14.3452 36.3982 14.364 36.5326 14.3742 36.6677C14.5303 38.6992 15.0239 40.6906 15.8347 42.5598C16.3714 43.8069 17.0631 44.9813 17.8936 46.0552C18.6482 47.0418 19.5415 47.9141 20.5457 48.645C21.3442 49.2297 22.221 49.6992 23.1503 50.0395C23.6437 50.2133 24.1496 50.3493 24.6636 50.4462C25.1012 50.5314 25.5459 50.575 25.9918 50.5765C26.1468 50.5777 26.3018 50.5778 26.4568 50.5804C27.466 50.5848 28.4697 50.4338 29.4329 50.1327C30.1195 49.9259 30.7903 49.6699 31.44 49.3666C32.0205 49.0984 32.5915 48.811 33.1551 48.5089C33.3771 48.3899 33.6001 48.2729 33.8241 48.1578C33.9797 48.0789 34.1414 48.0129 34.3077 47.9603C34.5295 47.8854 34.7694 47.883 34.9926 47.9534C35.1598 48.0034 35.3216 48.0696 35.4759 48.151C35.6461 48.2432 35.814 48.3405 35.9778 48.4436C36.3712 48.6914 36.7637 48.9407 37.153 49.195C38.8236 50.2864 40.4935 51.3787 42.1628 52.4721C43.3792 53.2669 44.5965 54.0604 45.8145 54.8528C46.0089 54.9797 46.1983 55.1145 46.389 55.2472C46.4168 55.274 46.4364 55.3081 46.4454 55.3456C46.4544 55.3832 46.4525 55.4225 46.4397 55.4589C46.4046 55.5277 46.3659 55.5946 46.3239 55.6594C46.1099 55.9592 45.8707 56.2401 45.6089 56.4992C45.1317 56.9812 44.6412 57.4483 44.1325 57.8976C43.377 58.5649 42.6035 59.21 41.812 59.833C41.4157 60.1438 41.0149 60.4488 40.6096 60.748C40.0607 61.1465 39.4884 61.5118 38.8958 61.8419C36.9703 62.931 34.8996 63.7404 32.746 64.2456C32.1427 64.388 31.5338 64.5086 30.9212 64.5989C30.4637 64.683 30.0013 64.7377 29.5369 64.7627C29.4399 64.7643 29.3432 64.7732 29.2477 64.7894C28.9027 64.8428 28.554 64.8677 28.205 64.8639C27.4686 64.868 26.7323 64.868 25.9959 64.8641C25.6275 64.8691 25.2593 64.8433 24.8952 64.787C24.8381 64.7771 24.7797 64.7734 24.7218 64.7685C22.4811 64.5695 20.2754 64.0823 18.1592 63.3191C16.0384 62.5664 14.0259 61.5375 12.1738 60.2591C11.2976 59.6519 10.4681 58.9799 9.69234 58.2487C8.25489 56.8904 6.96558 55.3834 5.84605 53.7531C4.74514 52.1577 3.79365 50.4642 3.00366 48.6942C2.21813 46.9439 1.58979 45.1272 1.12605 43.2656C0.976669 42.6642 0.830414 42.062 0.721214 41.4519C0.605284 40.8042 0.494799 40.1559 0.409173 39.5027C0.341181 38.9841 0.307563 38.4623 0.236849 37.9442C0.205518 37.7147 0.204839 37.4808 0.194807 37.2486C0.174746 36.7843 0.173993 36.3193 0.129885 35.8559C0.11158 35.6636 0.118079 35.4689 0.111023 35.1832Z" fill="#00A512"/>
<path d="M104.216 7.99365C104.221 8.03477 104.221 8.0764 104.215 8.11737C104.158 8.26176 104.083 8.39818 103.992 8.52316C103.614 9.10974 103.217 9.68299 102.812 10.2505C101.303 12.3627 99.7376 14.4326 98.1747 16.5046C96.7284 18.422 95.2722 20.332 93.8287 22.2515C92.327 24.2483 90.8307 26.2492 89.3398 28.2542C87.5122 30.7088 85.6878 33.1657 83.8667 35.6251C82.2508 37.8026 80.6356 39.9807 79.0212 42.1592C78.8136 42.4393 78.6132 42.7246 78.409 43.0072C75.6754 46.7911 72.8988 50.5431 70.0791 54.2633C69.0647 55.6088 68.0445 56.9499 67.0187 58.2868C66.2752 59.2542 65.5261 60.2177 64.7381 61.1499C64.5633 61.3567 64.3774 61.5544 64.1934 61.7534C64.1526 61.7946 64.106 61.8296 64.0551 61.8574C64.0052 61.8882 63.9461 61.9006 63.888 61.8924C63.7548 61.8668 63.6259 61.8222 63.5053 61.7599C63.0317 61.5367 62.5732 61.2852 62.1218 61.0208C61.0686 60.4039 60.0344 59.756 59.0038 59.1023C56.9916 57.826 54.9946 56.5265 53.0126 55.2038C50.2212 53.3493 47.4306 51.4935 44.6409 49.6365C43.8345 49.0996 43.0114 48.5892 42.1895 48.0767C41.4662 47.6257 40.7447 47.1716 40.0528 46.673C39.7701 46.4693 39.4946 46.2554 39.2197 46.041C39.1459 45.9788 39.0778 45.91 39.0164 45.8356C38.9972 45.8136 38.9831 45.7875 38.9752 45.7594C38.9674 45.7312 38.966 45.7016 38.9711 45.6729C38.9847 45.5771 39.0064 45.4826 39.036 45.3905C39.1193 45.1532 39.2031 44.9155 39.3008 44.6838C39.4361 44.3627 39.5813 44.0456 39.7277 43.7293C39.9729 43.2025 40.1813 42.6593 40.3514 42.1036C40.5918 41.3469 40.7872 40.5767 40.9366 39.7969C41.0434 39.2654 41.1129 38.727 41.1446 38.1858C41.1504 38.0311 41.1647 37.8765 41.1816 37.7227C41.2273 37.2987 41.2285 36.8712 41.1853 36.447C41.1777 36.3699 41.1652 36.2929 41.1634 36.2157C41.149 35.5953 41.0746 34.9802 41.0041 34.3648C40.9688 34.0571 40.9262 33.7504 40.885 33.4434C40.8259 33.0023 40.7606 32.5619 40.7063 32.1201C40.6638 31.7746 40.6334 31.4277 40.5987 31.0812C40.5984 31.0622 40.6026 31.0432 40.6111 31.0261C40.6195 31.009 40.6319 30.9941 40.6473 30.9827C40.6626 30.9714 40.6805 30.9639 40.6993 30.9608C40.7182 30.9577 40.7375 30.9592 40.7557 30.9651C40.8075 30.9907 40.8627 31.0108 40.9115 31.0411C41.0267 31.1126 41.1393 31.1883 41.2525 31.2629C43.5648 32.7883 45.8771 34.3137 48.1894 35.8392C50.1459 37.1299 52.1025 38.4207 54.059 39.7114C55.9187 40.938 57.7785 42.1644 59.6385 43.3904C60.1075 43.6996 60.5776 44.0072 61.0486 44.3134C61.1295 44.3662 61.2141 44.4134 61.2974 44.4626C61.3329 44.478 61.3719 44.4834 61.4102 44.4781C61.4485 44.4729 61.4847 44.4572 61.5147 44.4329C61.5733 44.3823 61.6349 44.3348 61.6898 44.2806C61.9128 44.0651 62.1172 43.8311 62.3008 43.5811C62.6287 43.1251 62.9568 42.6692 63.28 42.2099C64.3725 40.6577 65.4768 39.114 66.593 37.5787C68.103 35.4916 69.6342 33.4201 71.1662 31.3492C72.2605 29.87 73.3662 28.3992 74.4665 26.9244C75.9605 24.9218 77.454 22.9187 78.947 20.9153C80.1482 19.2983 81.3446 17.6778 82.5363 16.0538C83.6568 14.5218 84.7632 12.9794 85.8757 11.4416C86.1709 11.0336 86.4686 10.6274 86.7606 10.2172C87.0302 9.83853 87.2913 9.45392 87.5608 9.07517C87.6841 8.90181 87.8151 8.73369 87.9482 8.56758C88.1083 8.37179 88.3085 8.21255 88.5353 8.10057C88.7621 7.98858 89.0103 7.92644 89.2631 7.91833C89.3789 7.90931 89.4954 7.90779 89.6116 7.90645C89.8828 7.90331 90.1541 7.90075 90.4253 7.90079C94.785 7.90146 99.1447 7.90277 103.504 7.90474C103.717 7.88935 103.93 7.89838 104.141 7.93163C104.185 7.94181 104.211 7.96462 104.216 7.99365Z" fill="#00A512"/>
<path d="M97.4325 64.7231C95.3211 64.7281 93.2097 64.7331 91.0984 64.738C90.9046 64.7385 90.7109 64.739 90.5172 64.7379C89.8118 64.7369 89.1321 64.4724 88.6115 63.9962C88.4242 63.8279 88.2514 63.644 88.0951 63.4466C87.761 63.0193 87.4604 62.5667 87.1962 62.093C87.0019 61.7581 86.8111 61.4207 86.6336 61.0768C85.8696 59.5966 85.0479 58.1489 84.2037 56.7134C83.3891 55.3281 82.5847 53.937 81.7704 52.5516C81.1621 51.5168 80.5691 50.4729 79.9334 49.4543C79.8411 49.3066 79.7551 49.1548 79.6691 49.0033C79.5643 48.8176 79.4844 48.6188 79.4315 48.4122C79.3664 48.1673 79.3743 47.9088 79.4542 47.6684C79.5325 47.4288 79.6435 47.2011 79.7841 46.9918C79.9129 46.7988 80.0469 46.6081 80.1918 46.427C81.0268 45.3831 81.8032 44.2957 82.5855 43.2127C83.64 41.7529 84.689 40.2893 85.7721 38.8505C86.2496 38.2163 86.7374 37.5898 87.2531 36.9858C87.4701 36.713 87.7146 36.4632 87.9827 36.2404C88.0085 36.2278 88.037 36.2219 88.0656 36.2234C88.0942 36.2248 88.122 36.2334 88.1464 36.2485C88.1778 36.2708 88.2074 36.2955 88.2349 36.3225C88.2999 36.3941 88.361 36.4692 88.418 36.5474C88.6284 36.8492 88.8429 37.1484 89.0419 37.4575C89.7022 38.4833 90.337 39.5249 90.9631 40.5717C92.3546 42.898 93.7163 45.2417 95.0699 47.59C96.0561 49.3011 97.0654 50.9985 98.0976 52.6821C99.4195 54.8469 100.722 57.0231 102.005 59.2109C102.691 60.3798 103.363 61.5568 104.011 62.7473C104.215 63.1213 104.404 63.503 104.593 63.8846C104.671 64.0403 104.734 64.2033 104.797 64.3657C104.872 64.5606 104.786 64.6449 104.637 64.6534C104.212 64.6777 103.786 64.7012 103.36 64.7035C101.384 64.7143 99.4083 64.7211 97.4325 64.7239L97.4325 64.7231Z" fill="#00A512"/>
<path d="M57.8804 21.8566C57.8888 19.3167 57.8975 16.4892 57.9088 13.6618C57.9099 13.3909 57.9285 13.1202 57.9374 12.8493C57.9445 12.6364 57.9519 12.4235 57.9545 12.2106C57.9675 11.1455 57.9798 10.0805 57.9914 9.01538C57.9943 8.78306 58.0015 8.55081 58.0128 8.31864C58.0188 8.24171 58.0332 8.16568 58.056 8.09195C58.066 8.05448 58.0862 8.02049 58.1142 7.99367C58.1423 7.96685 58.1771 7.94823 58.215 7.93984C58.2713 7.92612 58.3289 7.91861 58.3869 7.91742C58.5224 7.91347 58.6581 7.91342 58.7937 7.91365C62.7657 7.92043 66.7376 7.92744 70.7096 7.93468C70.884 7.935 71.0584 7.93676 71.2326 7.94262C71.2904 7.94665 71.3476 7.95664 71.4033 7.97244C71.4414 7.98007 71.4767 7.99809 71.5052 8.02453C71.5337 8.05096 71.5543 8.08477 71.5647 8.1222C71.5854 8.19651 71.5981 8.27284 71.6024 8.34985C71.6658 9.50991 71.723 10.67 71.7078 11.8327C71.6946 12.8396 71.6931 13.8467 71.6856 14.8537C71.6845 14.9892 71.6871 15.1256 71.6732 15.26C71.6312 15.6655 71.6333 16.0723 71.6304 16.4788C71.6256 17.1566 71.6233 17.8344 71.6234 18.5122C71.6157 18.9577 71.6333 19.4032 71.6763 19.8467C71.6874 19.9624 71.6923 20.0786 71.6912 20.1948C71.6983 20.8919 71.706 21.589 71.7088 22.2861C71.7147 22.5962 71.6938 22.9061 71.6464 23.2125C71.627 23.3268 71.62 23.4434 71.6105 23.5591C71.5628 24.0413 71.459 24.5163 71.301 24.9744C71.1171 25.5268 70.8429 26.0449 70.4896 26.5077C69.8158 27.4065 69.1395 28.3036 68.4758 29.2098C67.6634 30.3192 66.8625 31.4371 66.0571 32.5517C65.0815 33.9017 64.1095 35.2543 63.1068 36.5845C62.8153 36.9712 62.5309 37.3627 62.2714 37.7721C62.0647 38.0999 61.8381 38.4147 61.593 38.7148C61.4325 38.9092 61.2457 39.0804 61.038 39.2233C60.886 39.3288 60.7106 39.3958 60.527 39.4183C60.3433 39.4407 60.1569 39.4181 59.9839 39.3523C59.6518 39.2402 59.3499 39.0531 59.1016 38.8057C58.6896 38.4199 58.3769 37.9403 58.1903 37.4076C58.1395 37.2613 58.1077 37.109 58.0956 36.9545C58.0337 36.1434 57.9953 35.3316 57.9908 34.5177C57.9836 33.1815 57.9689 31.8453 57.9542 30.5091C57.951 30.2189 57.9334 29.9288 57.9242 29.6385C57.9175 29.4257 57.9102 29.2127 57.9092 28.9998C57.8993 26.7146 57.8906 24.4294 57.8804 21.8566Z" fill="#00A512"/>
<path d="M273.044 10.8577C272.103 10.8787 271.175 10.6339 270.367 10.1513C269.142 9.45513 268.24 8.30448 267.856 6.94825C267.743 6.59119 267.682 6.21974 267.676 5.84535C267.674 5.59634 267.664 5.3469 267.675 5.0984C267.728 3.88292 268.208 2.72507 269.031 1.8288C269.78 0.98159 270.779 0.393817 271.883 0.149964C272.29 0.0629397 272.703 0.012911 273.118 0.000491457C273.139 -0.000359476 273.16 -0.000105368 273.18 0.00125354C274.046 0.0224413 274.895 0.249073 275.656 0.662477C276.417 1.07588 277.069 1.66423 277.559 2.37905C277.966 2.95857 278.25 3.61551 278.393 4.30922C278.464 4.67621 278.508 5.04774 278.525 5.42097C278.529 5.52471 278.524 5.62855 278.51 5.73148C278.498 5.85539 278.476 5.97827 278.464 6.10224C278.367 6.94098 278.073 7.74501 277.608 8.44947C277.142 9.15393 276.517 9.73908 275.784 10.1577C275.241 10.4661 274.651 10.6816 274.037 10.7954C273.708 10.8448 273.376 10.8657 273.044 10.8577ZM273.115 0.453765C272.571 0.435601 272.029 0.512875 271.512 0.682075C270.659 0.961652 269.897 1.46858 269.31 2.14839C268.535 3.00351 268.097 4.11088 268.077 5.26477C268.073 5.40997 268.078 5.55532 268.078 5.70061C268.083 6.09571 268.146 6.48789 268.265 6.86484C268.573 7.93263 269.234 8.86479 270.139 9.50985C270.964 10.1198 271.963 10.4493 272.989 10.4498C273.093 10.4506 273.197 10.4495 273.3 10.4479C273.925 10.4332 274.541 10.2932 275.11 10.0362C275.797 9.73351 276.406 9.27709 276.889 8.7021C277.625 7.86935 278.045 6.80419 278.075 5.69317C278.079 5.52727 278.076 5.36112 278.075 5.19509C278.072 4.84177 278.021 4.49048 277.924 4.15066C277.756 3.50562 277.458 2.9014 277.05 2.37442C276.641 1.84745 276.13 1.40863 275.548 1.08442C274.812 0.651059 273.969 0.432588 273.115 0.453765Z" fill="#00A512"/>
<path d="M270.943 5.43966C270.943 4.83719 270.943 4.23473 270.943 3.63228C270.943 3.48689 270.942 3.34128 270.949 3.19613C270.947 3.10209 270.964 3.00861 270.998 2.92105C271.033 2.83349 271.084 2.75359 271.149 2.68592C271.215 2.61825 271.293 2.56414 271.379 2.52671C271.465 2.48928 271.558 2.46927 271.652 2.46781C271.694 2.46524 271.735 2.46187 271.777 2.46191C272.525 2.46279 273.273 2.46401 274.021 2.46559C274.23 2.46639 274.436 2.4997 274.634 2.56431C274.844 2.62587 275.04 2.72872 275.21 2.86686C275.379 3.00499 275.52 3.17562 275.623 3.36875C275.726 3.56188 275.789 3.77363 275.809 3.99158C275.83 4.20954 275.806 4.42932 275.74 4.63804C275.647 4.98267 275.427 5.27966 275.125 5.47037C275.003 5.54912 274.874 5.61544 274.748 5.68816C274.686 5.72417 274.66 5.8014 274.697 5.84288C274.792 5.95211 274.891 6.05858 274.984 6.17027C275.321 6.56705 275.594 7.01367 275.794 7.49418C275.832 7.59063 275.864 7.68964 275.889 7.7905C275.909 7.87194 275.901 7.95771 275.867 8.0344C275.824 8.15223 275.747 8.25468 275.645 8.32906C275.544 8.40343 275.423 8.44645 275.298 8.45278C275.173 8.46616 275.047 8.44678 274.932 8.39655C274.816 8.34631 274.716 8.26695 274.641 8.16628C274.527 8.01796 274.423 7.86308 274.327 7.70244C274.163 7.43758 274.007 7.16776 273.845 6.90139C273.77 6.77716 273.691 6.65494 273.61 6.53412C273.564 6.46519 273.513 6.39891 273.46 6.33488C273.353 6.19275 273.208 6.08404 273.042 6.02149C272.875 5.95894 272.694 5.94513 272.52 5.98167C272.48 5.99151 272.443 6.01265 272.415 6.04258C272.387 6.07251 272.367 6.10996 272.36 6.15049C272.35 6.27446 272.339 6.39858 272.337 6.52273C272.334 6.87586 272.337 7.22905 272.334 7.58221C272.334 7.686 272.326 7.78964 272.31 7.89214C272.286 8.04761 272.207 8.18956 272.089 8.29286C271.97 8.39617 271.818 8.45418 271.661 8.45664C271.504 8.46223 271.35 8.4126 271.225 8.31634C271.1 8.22008 271.013 8.08327 270.979 7.92961C270.956 7.82844 270.945 7.7248 270.946 7.62097C270.941 7.30941 270.943 6.99775 270.943 6.68614C270.943 6.27064 270.943 5.85515 270.943 5.43966ZM273.19 3.57401C272.964 3.5838 272.757 3.59112 272.55 3.60252C272.498 3.61117 272.452 3.63618 272.416 3.67377C272.38 3.71137 272.358 3.75952 272.352 3.81101C272.328 4.08007 272.329 4.35065 272.352 4.61967C272.355 4.64037 272.36 4.66067 272.368 4.68C272.377 4.70924 272.393 4.73615 272.413 4.75895C272.434 4.78176 272.459 4.79993 272.487 4.81228C272.525 4.82916 272.565 4.83995 272.606 4.84427C272.98 4.8702 273.355 4.86618 273.727 4.83225C273.789 4.82716 273.851 4.81685 273.912 4.80144C274.004 4.78242 274.09 4.74167 274.163 4.68259C274.237 4.62351 274.295 4.54779 274.333 4.46173C274.371 4.37568 274.388 4.28177 274.382 4.1878C274.377 4.09384 274.349 4.00253 274.301 3.92147C274.258 3.83768 274.195 3.76586 274.117 3.71239C274.04 3.65892 273.95 3.62546 273.856 3.61498C273.629 3.58998 273.4 3.58607 273.19 3.57401Z" fill="#00A512"/>
</svg>
